<svg xmlns="http://www.w3.org/2000/svg" xmlns:xlink="http://www.w3.org/1999/xlink" width="1920" zoomAndPan="magnify" viewBox="0 0 1440 809.999993" height="1080" preserveAspectRatio="xMidYMid meet" version="1.0"><defs><g/><clipPath id="id1"><path d="M 1025 544 L 1052 544 L 1052 584.878906 L 1025 584.878906 Z M 1025 544 " clip-rule="nonzero"/></clipPath><clipPath id="id2"><path d="M 906.242188 515 L 938 515 L 938 543 L 906.242188 543 Z M 906.242188 515 " clip-rule="nonzero"/></clipPath><clipPath id="id3"><path d="M 1061 470 L 1088.492188 470 L 1088.492188 497 L 1061 497 Z M 1061 470 " clip-rule="nonzero"/></clipPath><clipPath id="id4"><path d="M 1005 372.628906 L 1038 372.628906 L 1038 405 L 1005 405 Z M 1005 372.628906 " clip-rule="nonzero"/></clipPath></defs><g fill="#ffffff" fill-opacity="1"><g transform="translate(430.84649, 353.766449)"><g><path d="M 81.40625 -27.734375 C 86.082031 -27.734375 90.625 -28.4375 95.03125 -29.84375 C 99.4375 -31.257812 102.671875 -32.625 104.734375 -33.9375 L 107.828125 -36.046875 L 120.890625 -9.953125 C 120.453125 -9.628906 119.851562 -9.191406 119.09375 -8.640625 C 118.332031 -8.097656 116.5625 -7.09375 113.78125 -5.625 C 111.007812 -4.15625 108.046875 -2.875 104.890625 -1.78125 C 101.742188 -0.695312 97.613281 0.273438 92.5 1.140625 C 87.382812 2.015625 82.109375 2.453125 76.671875 2.453125 C 64.171875 2.453125 52.316406 -0.617188 41.109375 -6.765625 C 29.910156 -12.910156 20.882812 -21.367188 14.03125 -32.140625 C 7.175781 -42.910156 3.75 -54.546875 3.75 -67.046875 C 3.75 -76.515625 5.757812 -85.597656 9.78125 -94.296875 C 13.8125 -102.992188 19.171875 -110.441406 25.859375 -116.640625 C 32.546875 -122.835938 40.347656 -127.785156 49.265625 -131.484375 C 58.179688 -135.179688 67.316406 -137.03125 76.671875 -137.03125 C 85.378906 -137.03125 93.398438 -136 100.734375 -133.9375 C 108.078125 -131.875 113.269531 -129.804688 116.3125 -127.734375 L 120.890625 -124.640625 L 107.828125 -98.53125 C 107.066406 -99.1875 105.925781 -99.976562 104.40625 -100.90625 C 102.882812 -101.832031 99.835938 -103.054688 95.265625 -104.578125 C 90.703125 -106.097656 86.082031 -106.859375 81.40625 -106.859375 C 74.007812 -106.859375 67.375 -105.660156 61.5 -103.265625 C 55.625 -100.867188 50.972656 -97.710938 47.546875 -93.796875 C 44.128906 -89.890625 41.519531 -85.675781 39.71875 -81.15625 C 37.925781 -76.644531 37.03125 -72.050781 37.03125 -67.375 C 37.03125 -57.15625 40.863281 -47.992188 48.53125 -39.890625 C 56.195312 -31.785156 67.15625 -27.734375 81.40625 -27.734375 Z M 81.40625 -27.734375 "/></g></g></g><g fill="#ffffff" fill-opacity="1"><g transform="translate(553.688475, 353.766449)"><g><path d="M 40.453125 -134.59375 L 40.453125 -26.921875 L 86.796875 -26.921875 L 86.796875 0 L 9.78125 0 L 9.78125 -134.59375 Z M 40.453125 -134.59375 "/></g></g></g><g fill="#ffffff" fill-opacity="1"><g transform="translate(645.860754, 353.766449)"><g><path d="M 78.140625 -134.59375 L 132.46875 0 L 99.515625 0 L 89.5625 -26.921875 L 38.34375 -26.921875 L 28.390625 0 L -4.5625 0 L 49.765625 -134.59375 Z M 79.125 -53.84375 L 64.109375 -92.984375 L 63.78125 -92.984375 L 48.78125 -53.84375 Z M 79.125 -53.84375 "/></g></g></g><g fill="#ffffff" fill-opacity="1"><g transform="translate(773.759988, 353.766449)"><g><path d="M 40.453125 -134.59375 L 40.453125 0 L 9.78125 0 L 9.78125 -134.59375 Z M 40.453125 -134.59375 "/></g></g></g><g fill="#ffffff" fill-opacity="1"><g transform="translate(824.00614, 353.766449)"><g><path d="M 121.046875 0 L 114.6875 -79.78125 L 113.875 -79.78125 L 86.296875 -0.8125 L 68.03125 -0.8125 L 40.453125 -79.78125 L 39.640625 -79.78125 L 33.28125 0 L 2.609375 0 L 14.6875 -134.59375 L 47.3125 -134.59375 L 77.171875 -56.9375 L 107.015625 -134.59375 L 139.640625 -134.59375 L 151.71875 0 Z M 121.046875 0 "/></g></g></g><g fill="#ffffff" fill-opacity="1"><g transform="translate(512.233204, 530.76644)"><g><path d="M 43.921875 -58.625 L 43.921875 0 L 10.625 0 L 10.625 -146.125 L 43.921875 -146.125 L 43.921875 -87.859375 L 91.046875 -87.859375 L 91.046875 -146.125 L 124.34375 -146.125 L 124.34375 0 L 91.046875 0 L 91.046875 -58.625 Z M 43.921875 -58.625 "/></g></g></g><g fill="#ffffff" fill-opacity="1"><g transform="translate(647.196485, 530.76644)"><g><path d="M 122.921875 -146.125 L 122.921875 -51.890625 C 122.921875 -33.941406 118.078125 -20.363281 108.390625 -11.15625 C 98.710938 -1.945312 84.546875 2.65625 65.890625 2.65625 C 47.234375 2.65625 33.0625 -1.945312 23.375 -11.15625 C 13.695312 -20.363281 8.859375 -33.941406 8.859375 -51.890625 L 8.859375 -146.125 L 42.15625 -146.125 L 42.15625 -61.640625 C 42.15625 -49.828125 44.015625 -41.617188 47.734375 -37.015625 C 51.453125 -32.410156 57.503906 -30.109375 65.890625 -30.109375 C 74.273438 -30.109375 80.328125 -32.410156 84.046875 -37.015625 C 87.765625 -41.617188 89.625 -49.828125 89.625 -61.640625 L 89.625 -146.125 Z M 122.921875 -146.125 "/></g></g></g><g fill="#ffffff" fill-opacity="1"><g transform="translate(778.971651, 530.76644)"><g><path d="M 10.625 -146.125 L 55.96875 -146.125 C 69.664062 -146.125 80.585938 -143.203125 88.734375 -137.359375 C 96.890625 -131.515625 100.96875 -122.039062 100.96875 -108.9375 C 100.96875 -94.289062 94.882812 -83.835938 82.71875 -77.578125 C 103.5 -73.921875 113.890625 -61.640625 113.890625 -40.734375 C 113.890625 -28.453125 109.640625 -18.59375 101.140625 -11.15625 C 92.640625 -3.71875 80.945312 0 66.0625 0 L 10.625 0 Z M 43.921875 -88.921875 L 46.578125 -88.921875 C 54.023438 -88.921875 59.578125 -90.21875 63.234375 -92.8125 C 66.890625 -95.40625 68.71875 -99.65625 68.71875 -105.5625 C 68.71875 -115.476562 61.335938 -120.4375 46.578125 -120.4375 L 43.921875 -120.4375 Z M 43.921875 -25.6875 L 54.375 -25.6875 C 70.675781 -25.6875 78.828125 -31.117188 78.828125 -41.984375 C 78.828125 -48.472656 76.785156 -53.132812 72.703125 -55.96875 C 68.628906 -58.800781 62.519531 -60.21875 54.375 -60.21875 L 43.921875 -60.21875 Z M 43.921875 -25.6875 "/></g></g></g><path fill="#e86b57" d="M 1026.917969 554.515625 C 1026.527344 554.101562 1025.980469 553.878906 1025.402344 553.894531 L 1011.28125 554.332031 C 1010.722656 554.351562 1010.199219 554.597656 1009.832031 555.023438 C 1009.464844 555.445312 1009.289062 555.996094 1009.347656 556.554688 L 1011.785156 579.570312 C 1011.894531 580.597656 1012.761719 581.367188 1013.78125 581.367188 L 1013.847656 581.363281 L 1023.679688 581.054688 C 1024.703125 581.027344 1025.539062 580.230469 1025.617188 579.207031 L 1027.464844 556.0625 C 1027.511719 555.488281 1027.3125 554.933594 1026.917969 554.515625 " fill-opacity="1" fill-rule="nonzero"/><path fill="#e86b57" d="M 956.679688 541.710938 C 956.289062 541.304688 955.753906 541.082031 955.179688 541.101562 L 941.0625 541.542969 C 940.507812 541.5625 939.984375 541.804688 939.621094 542.222656 C 939.25 542.632812 939.070312 543.179688 939.125 543.730469 L 941.773438 573.503906 C 941.863281 574.542969 942.734375 575.335938 943.769531 575.335938 L 943.835938 575.332031 L 953.667969 575.03125 C 954.707031 574.996094 955.550781 574.167969 955.613281 573.128906 L 957.246094 543.222656 C 957.277344 542.660156 957.074219 542.109375 956.679688 541.710938 " fill-opacity="1" fill-rule="nonzero"/><g clip-path="url(#id1)"><path fill="#f4a18f" d="M 1050.855469 544.957031 C 1050.464844 544.542969 1049.925781 544.304688 1049.335938 544.332031 L 1027.335938 545.019531 C 1026.78125 545.039062 1026.25 545.285156 1025.886719 545.707031 C 1025.519531 546.128906 1025.34375 546.683594 1025.402344 547.242188 L 1029.199219 583.097656 C 1029.3125 584.121094 1030.175781 584.894531 1031.199219 584.894531 L 1031.265625 584.894531 L 1046.585938 584.417969 C 1047.605469 584.386719 1048.441406 583.589844 1048.523438 582.566406 L 1051.402344 546.503906 C 1051.449219 545.933594 1051.246094 545.371094 1050.855469 544.957031 " fill-opacity="1" fill-rule="nonzero"/></g><path fill="#f4a18f" d="M 979.59375 543.78125 C 979.203125 543.371094 978.660156 543.128906 978.078125 543.160156 L 956.078125 543.84375 C 955.519531 543.867188 954.992188 544.109375 954.628906 544.53125 C 954.257812 544.957031 954.085938 545.511719 954.144531 546.066406 L 957.945312 581.925781 C 958.050781 582.949219 958.917969 583.71875 959.9375 583.71875 L 960 583.71875 L 975.324219 583.242188 C 976.347656 583.210938 977.183594 582.417969 977.261719 581.390625 L 980.140625 545.332031 C 980.183594 544.757812 979.992188 544.195312 979.59375 543.78125 " fill-opacity="1" fill-rule="nonzero"/><path fill="#f4a18f" d="M 990.964844 457.140625 C 959.640625 460.070312 933.695312 475.507812 921.984375 495.632812 C 920 498.785156 920.074219 498.25 918.351562 503.175781 C 915.867188 509.648438 914.8125 516.46875 915.460938 523.421875 C 918.484375 555.839844 957.183594 578.734375 1001.910156 574.550781 C 1046.632812 570.371094 1072.007812 548.636719 1072.007812 513.703125 C 1072.007812 479.707031 1035.6875 452.960938 990.964844 457.140625 " fill-opacity="1" fill-rule="nonzero"/><path fill="#e86b57" d="M 939.101562 528.246094 C 938.890625 522.527344 933.039062 517.375 924.074219 515.925781 L 925.476562 516.183594 C 931.917969 517.589844 936.792969 522.523438 937.027344 528.523438 C 937.289062 535.191406 931.734375 540.8125 924.300781 541.847656 C 924.273438 541.917969 923.261719 541.917969 923.234375 541.992188 C 935.765625 540.5 939.351562 534.988281 939.101562 528.246094 " fill-opacity="1" fill-rule="nonzero"/><g clip-path="url(#id2)"><path fill="#f6af98" d="M 937.027344 528.523438 C 937.308594 535.78125 930.714844 541.828125 922.296875 542.039062 C 913.882812 542.25 906.832031 536.539062 906.546875 529.28125 C 906.265625 522.027344 912.859375 515.984375 921.273438 515.773438 C 929.695312 515.566406 936.746094 521.269531 937.027344 528.523438 " fill-opacity="1" fill-rule="nonzero"/></g><path fill="#f4a18f" d="M 941.902344 455.917969 C 952.113281 455.917969 960.367188 467.339844 960.367188 467.339844 C 960.367188 467.496094 953.046875 465.453125 936.441406 479.707031 C 937.433594 478.851562 937.746094 477.414062 938.238281 476.15625 C 940.796875 469.472656 932.664062 458.847656 933.878906 457.71875 C 935.09375 456.589844 939.8125 455.917969 941.902344 455.917969 " fill-opacity="1" fill-rule="evenodd"/><path fill="#e86b57" d="M 970.894531 471.835938 C 980.945312 470.019531 991.09375 479.785156 991.09375 479.785156 C 979.492188 481.289062 970.882812 492.402344 970.882812 492.402344 C 972.210938 485.375 962.320312 476.367188 963.316406 475.035156 C 964.3125 473.707031 968.835938 472.210938 970.894531 471.835938 " fill-opacity="1" fill-rule="evenodd"/><path fill="#351f17" d="M 948.449219 503.113281 C 949.804688 503.113281 950.886719 506.144531 950.886719 509.863281 C 950.886719 513.589844 949.804688 516.621094 948.449219 516.621094 C 947.097656 516.621094 945.988281 513.589844 945.988281 509.863281 C 945.988281 506.144531 947.097656 503.113281 948.449219 503.113281 " fill-opacity="1" fill-rule="evenodd"/><path fill="#351f17" d="M 929.800781 497.90625 C 931.152344 497.90625 932.238281 500.9375 932.238281 504.65625 C 932.238281 508.382812 931.152344 511.414062 929.800781 511.414062 C 928.449219 511.414062 927.339844 508.382812 927.339844 504.65625 C 927.339844 500.9375 928.449219 497.90625 929.800781 497.90625 " fill-opacity="1" fill-rule="evenodd"/><path fill="#e86b57" d="M 913.847656 528.828125 C 913.871094 527.515625 914.964844 526.46875 916.289062 526.492188 C 917.613281 526.511719 918.671875 527.59375 918.648438 528.90625 C 918.628906 530.21875 917.535156 531.261719 916.210938 531.242188 C 914.886719 531.222656 913.828125 530.140625 913.847656 528.828125 " fill-opacity="1" fill-rule="nonzero"/><path fill="#e86b57" d="M 923.367188 528.980469 C 923.386719 527.667969 924.480469 526.621094 925.804688 526.644531 C 927.128906 526.664062 928.1875 527.746094 928.164062 529.058594 C 928.144531 530.371094 927.050781 531.414062 925.730469 531.394531 C 924.402344 531.375 923.347656 530.292969 923.367188 528.980469 " fill-opacity="1" fill-rule="nonzero"/><g clip-path="url(#id3)"><path fill="#f4a18f" d="M 1074.003906 484.976562 L 1073.835938 484.992188 L 1073.527344 485.023438 L 1073.453125 485.03125 L 1073.429688 485.035156 L 1073.261719 485.03125 C 1072.960938 485.015625 1072.664062 485.003906 1072.363281 484.992188 L 1071.730469 484.890625 C 1069.917969 484.574219 1068.027344 483.496094 1067.027344 481.855469 C 1066.53125 481.054688 1066.234375 480.144531 1066.292969 479.351562 C 1066.320312 479.160156 1066.3125 478.960938 1066.386719 478.785156 L 1066.417969 478.648438 L 1066.433594 478.578125 L 1066.4375 478.570312 L 1066.621094 478.117188 L 1066.816406 477.636719 C 1066.878906 477.464844 1066.945312 477.300781 1067.007812 477.222656 C 1067.125 477.023438 1067.242188 476.820312 1067.351562 476.617188 C 1068.523438 474.820312 1069.898438 474.425781 1071.65625 475.195312 C 1072.515625 475.585938 1073.335938 476.3125 1073.972656 477.175781 L 1074.199219 477.507812 L 1074.304688 477.660156 L 1074.347656 477.742188 L 1074.828125 478.675781 C 1074.867188 478.871094 1074.925781 479.054688 1074.992188 479.238281 C 1075.058594 479.4375 1075.078125 479.714844 1075.132812 479.941406 C 1075.351562 481.539062 1074.867188 483.316406 1074.003906 484.976562 M 1087.988281 476.875 C 1087.875 476.53125 1087.773438 476.308594 1087.703125 476.140625 C 1087.632812 475.980469 1087.597656 475.894531 1087.597656 475.894531 L 1087.589844 475.882812 C 1087.378906 475.386719 1086.894531 475.039062 1086.320312 475.03125 C 1085.546875 475.019531 1084.90625 475.636719 1084.894531 476.417969 C 1084.894531 476.417969 1084.886719 476.773438 1084.875 477.445312 C 1084.789062 477.683594 1084.796875 477.878906 1084.667969 478.226562 C 1084.597656 478.566406 1084.417969 478.917969 1084.25 479.304688 C 1083.851562 480.039062 1083.113281 480.898438 1082.054688 481.613281 C 1081.699219 481.832031 1081.285156 482.132812 1080.964844 482.296875 C 1080.613281 482.484375 1080.296875 482.683594 1079.871094 482.882812 L 1079.730469 482.953125 C 1079.945312 481.785156 1080.023438 480.554688 1079.859375 479.296875 C 1079.765625 478.847656 1079.722656 478.414062 1079.582031 477.941406 C 1079.433594 477.460938 1079.257812 476.976562 1079.074219 476.5 L 1078.582031 475.550781 L 1078.523438 475.433594 L 1078.492188 475.375 L 1078.390625 475.1875 L 1078.367188 475.152344 L 1078.183594 474.878906 L 1077.804688 474.339844 C 1076.761719 472.929688 1075.410156 471.679688 1073.6875 470.863281 C 1071.984375 470.050781 1069.785156 469.757812 1067.773438 470.441406 C 1065.742188 471.113281 1064.3125 472.640625 1063.378906 474.121094 C 1063.148438 474.527344 1062.929688 474.941406 1062.722656 475.355469 C 1062.601562 475.578125 1062.542969 475.738281 1062.480469 475.894531 L 1062.292969 476.382812 L 1062.105469 476.863281 L 1062.082031 476.925781 L 1062.023438 477.085938 L 1062.011719 477.128906 L 1061.960938 477.316406 L 1061.871094 477.683594 C 1061.726562 478.171875 1061.699219 478.660156 1061.664062 479.148438 C 1061.632812 479.878906 1061.707031 480.582031 1061.855469 481.25 C 1062.03125 481.765625 1062.414062 483.328125 1063.300781 484.621094 C 1064.125 485.828125 1065.234375 486.617188 1065.535156 486.878906 C 1067.089844 488.117188 1068.898438 488.921875 1070.722656 489.265625 C 1070.488281 489.484375 1070.257812 489.722656 1070.023438 489.917969 L 1069.972656 489.957031 L 1069.824219 490.0625 L 1069.441406 490.320312 L 1065.851562 491.882812 C 1065.726562 491.964844 1065.59375 492.070312 1065.480469 492.128906 L 1065.1875 492.246094 L 1064.683594 492.464844 C 1065.480469 493.835938 1066.058594 495.328125 1066.421875 496.890625 L 1066.515625 496.84375 C 1066.867188 496.6875 1070.046875 495.476562 1070.402344 495.308594 L 1070.9375 495.050781 C 1071.085938 494.96875 1071.199219 494.886719 1071.328125 494.800781 L 1072.097656 494.285156 L 1072.480469 494.023438 L 1072.675781 493.890625 L 1072.726562 493.859375 L 1072.90625 493.726562 L 1072.933594 493.703125 L 1073.039062 493.613281 C 1073.609375 493.140625 1074.136719 492.652344 1074.632812 492.128906 C 1075.628906 491.097656 1076.539062 489.964844 1077.355469 488.707031 C 1077.894531 488.539062 1078.40625 488.34375 1078.898438 488.144531 C 1079.972656 487.71875 1080.953125 487.25 1081.882812 486.761719 C 1082.339844 486.539062 1082.824219 486.242188 1083.273438 485.980469 C 1083.769531 485.703125 1084.074219 485.46875 1084.449219 485.222656 C 1086.246094 483.957031 1087.425781 482.3125 1087.886719 480.703125 C 1088.375 479.121094 1088.183594 477.808594 1087.988281 476.875 " fill-opacity="1" fill-rule="nonzero"/></g><path fill="#efefef" d="M 1072.007812 513.703125 C 1072.007812 513.683594 1072.007812 513.675781 1072.007812 513.660156 C 1072.007812 513.675781 1072.007812 513.683594 1072.007812 513.703125 M 1072.007812 513.648438 C 1072.007812 513.636719 1072.007812 513.625 1072.007812 513.605469 C 1072.007812 513.621094 1072.007812 513.636719 1072.007812 513.648438 M 1072.007812 513.605469 C 1072.007812 513.59375 1072.007812 513.578125 1072.007812 513.570312 C 1072.007812 513.578125 1072.007812 513.59375 1072.007812 513.605469 M 1072.007812 513.558594 C 1072.007812 513.542969 1072.007812 513.53125 1072.007812 513.519531 C 1072.007812 513.53125 1072.007812 513.542969 1072.007812 513.558594 M 1072.007812 513.507812 C 1072.007812 513.5 1072.007812 513.484375 1072.007812 513.472656 C 1072.007812 513.484375 1072.007812 513.496094 1072.007812 513.507812 M 1072.007812 513.464844 C 1072.007812 513.453125 1072.007812 513.4375 1072.007812 513.425781 C 1072.007812 513.441406 1072.007812 513.453125 1072.007812 513.464844 M 1072.007812 513.414062 C 1072.007812 513.40625 1072.007812 513.394531 1072.007812 513.386719 C 1072.007812 513.394531 1072.007812 513.40625 1072.007812 513.414062 M 1072.007812 513.371094 C 1072.007812 513.359375 1072.007812 513.347656 1072.007812 513.335938 C 1072.007812 513.347656 1072.007812 513.359375 1072.007812 513.371094 M 1072.007812 513.320312 C 1072.007812 513.308594 1072.003906 513.300781 1072.003906 513.292969 C 1072.003906 513.300781 1072.007812 513.308594 1072.007812 513.320312 M 1072.003906 513.28125 C 1072.003906 513.269531 1072.003906 513.253906 1072.003906 513.242188 C 1072.003906 513.253906 1072.003906 513.269531 1072.003906 513.28125 M 1072.003906 513.226562 C 1072.003906 513.21875 1072.003906 513.210938 1072.003906 513.203125 C 1072.003906 513.210938 1072.003906 513.21875 1072.003906 513.226562 M 1072.003906 513.179688 C 1072.003906 513.171875 1072.003906 513.164062 1072.003906 513.15625 C 1072.003906 513.164062 1072.003906 513.171875 1072.003906 513.179688 M 1072.003906 513.132812 C 1072.003906 513.128906 1072.003906 513.117188 1072.003906 513.113281 C 1072.003906 513.121094 1072.003906 513.128906 1072.003906 513.132812 M 1072.003906 513.082031 C 1072.003906 513.078125 1072.003906 513.070312 1072.003906 513.0625 C 1072.003906 513.070312 1072.003906 513.074219 1072.003906 513.082031 M 1072 513.042969 C 1072 513.035156 1072 513.03125 1072 513.03125 C 1072 513.03125 1072 513.035156 1072 513.042969 M 1072 512.984375 C 1072 512.980469 1072 512.980469 1072 512.976562 C 1072 512.976562 1072 512.980469 1072 512.984375 " fill-opacity="1" fill-rule="nonzero"/><path fill="#e59786" d="M 991.414062 575.042969 C 967.207031 575.042969 945.585938 567.109375 931.625 554.269531 C 943.941406 560.378906 958.871094 563.882812 974.949219 563.882812 C 978.394531 563.882812 981.902344 563.722656 985.4375 563.390625 C 1030.160156 559.210938 1055.535156 537.476562 1055.535156 502.539062 C 1055.535156 488.203125 1049.0625 475.175781 1038.242188 465.191406 C 1050.875 471.382812 1060.796875 480.59375 1066.527344 491.589844 L 1065.851562 491.882812 C 1065.726562 491.964844 1065.59375 492.070312 1065.480469 492.128906 L 1065.1875 492.246094 L 1064.683594 492.464844 C 1065.480469 493.835938 1066.058594 495.328125 1066.421875 496.890625 L 1066.515625 496.84375 C 1066.699219 496.761719 1067.65625 496.394531 1068.574219 496.035156 C 1070.71875 501.371094 1071.910156 507.058594 1072 512.976562 C 1072 512.980469 1072 512.980469 1072 512.984375 C 1072 513 1072 513.011719 1072 513.03125 C 1072 513.03125 1072 513.035156 1072 513.042969 C 1072.003906 513.050781 1072.003906 513.058594 1072.003906 513.0625 C 1072.003906 513.070312 1072.003906 513.078125 1072.003906 513.082031 C 1072.003906 513.089844 1072.003906 513.101562 1072.003906 513.113281 C 1072.003906 513.117188 1072.003906 513.128906 1072.003906 513.132812 C 1072.003906 513.140625 1072.003906 513.148438 1072.003906 513.15625 C 1072.003906 513.164062 1072.003906 513.171875 1072.003906 513.179688 C 1072.003906 513.1875 1072.003906 513.195312 1072.003906 513.203125 C 1072.003906 513.210938 1072.003906 513.21875 1072.003906 513.226562 C 1072.003906 513.234375 1072.003906 513.238281 1072.003906 513.242188 C 1072.003906 513.253906 1072.003906 513.269531 1072.003906 513.28125 C 1072.003906 513.285156 1072.003906 513.289062 1072.003906 513.292969 C 1072.003906 513.300781 1072.007812 513.308594 1072.007812 513.320312 C 1072.007812 513.324219 1072.007812 513.328125 1072.007812 513.335938 C 1072.007812 513.347656 1072.007812 513.359375 1072.007812 513.371094 C 1072.007812 513.378906 1072.007812 513.378906 1072.007812 513.386719 C 1072.007812 513.394531 1072.007812 513.40625 1072.007812 513.414062 C 1072.007812 513.417969 1072.007812 513.421875 1072.007812 513.425781 C 1072.007812 513.4375 1072.007812 513.453125 1072.007812 513.464844 C 1072.007812 513.46875 1072.007812 513.472656 1072.007812 513.472656 C 1072.007812 513.484375 1072.007812 513.5 1072.007812 513.507812 C 1072.007812 513.511719 1072.007812 513.511719 1072.007812 513.519531 C 1072.007812 513.53125 1072.007812 513.542969 1072.007812 513.558594 C 1072.007812 513.558594 1072.007812 513.5625 1072.007812 513.570312 C 1072.007812 513.578125 1072.007812 513.59375 1072.007812 513.605469 C 1072.007812 513.625 1072.007812 513.636719 1072.007812 513.648438 C 1072.007812 513.652344 1072.007812 513.65625 1072.007812 513.660156 C 1072.007812 513.675781 1072.007812 513.683594 1072.007812 513.703125 C 1072.007812 532.699219 1064.5 547.796875 1050.464844 558.285156 C 1044.175781 562.980469 1036.582031 566.753906 1027.765625 569.542969 C 1027.300781 569.691406 1026.828125 569.835938 1026.355469 569.976562 C 1021.617188 571.398438 1016.539062 572.542969 1011.132812 573.402344 C 1008.15625 573.871094 1005.082031 574.253906 1001.910156 574.550781 C 998.367188 574.882812 994.867188 575.042969 991.414062 575.042969 " fill-opacity="1" fill-rule="nonzero"/><path fill="#e59786" d="M 1066.421875 496.890625 C 1066.058594 495.328125 1065.480469 493.835938 1064.683594 492.464844 L 1065.1875 492.246094 L 1065.480469 492.128906 C 1065.59375 492.070312 1065.726562 491.964844 1065.851562 491.882812 L 1066.527344 491.589844 C 1067.285156 493.039062 1067.96875 494.523438 1068.574219 496.035156 C 1067.65625 496.394531 1066.699219 496.761719 1066.515625 496.84375 L 1066.421875 496.890625 " fill-opacity="1" fill-rule="nonzero"/><path fill="#e86b57" d="M 1003.160156 459.660156 C 1009.734375 459.660156 1015.957031 460.59375 1021.566406 462.261719 L 1021.566406 467.324219 C 1016.125 465.316406 1009.859375 464.175781 1003.160156 464.175781 C 998.15625 464.175781 993.390625 464.816406 989.027344 465.976562 L 989.027344 461.167969 C 993.464844 460.191406 998.230469 459.660156 1003.160156 459.660156 " fill-opacity="1" fill-rule="evenodd"/><path fill="#d5624f" d="M 1003.160156 460.90625 C 1009.734375 460.90625 1015.957031 461.835938 1021.566406 463.507812 L 1021.566406 468.566406 C 1016.125 466.558594 1009.859375 465.421875 1003.160156 465.421875 C 998.15625 465.421875 993.390625 466.058594 989.027344 467.222656 L 989.027344 462.414062 C 993.464844 461.4375 998.230469 460.90625 1003.160156 460.90625 " fill-opacity="1" fill-rule="evenodd"/><path fill="#f1a017" d="M 1004.460938 464.140625 C 1013.261719 464.140625 1020.441406 456.953125 1020.441406 448.136719 C 1020.441406 439.324219 1013.261719 432.132812 1004.460938 432.132812 C 995.660156 432.132812 988.480469 439.324219 988.480469 448.136719 C 988.480469 456.953125 995.660156 464.140625 1004.460938 464.140625 " fill-opacity="1" fill-rule="evenodd"/><path fill="#fcce5c" d="M 1004.460938 461.035156 C 1011.550781 461.035156 1017.339844 455.238281 1017.339844 448.136719 C 1017.339844 441.03125 1011.550781 435.242188 1004.460938 435.242188 C 997.367188 435.242188 991.585938 441.03125 991.585938 448.136719 C 991.585938 455.238281 997.367188 461.035156 1004.460938 461.035156 " fill-opacity="1" fill-rule="evenodd"/><path fill="#f1a017" d="M 1003.347656 454.625 C 1002.699219 454.464844 1002.03125 454.195312 1001.339844 453.804688 L 1001.339844 454.578125 L 998.46875 454.578125 L 998.46875 449.808594 L 1001.339844 449.808594 C 1001.5 450.496094 1001.832031 451.042969 1002.34375 451.429688 C 1002.851562 451.820312 1003.417969 452.011719 1004.054688 452.011719 C 1004.488281 452.011719 1004.804688 451.933594 1005.007812 451.765625 C 1005.207031 451.597656 1005.308594 451.421875 1005.308594 451.230469 C 1005.308594 450.914062 1005.140625 450.667969 1004.789062 450.492188 C 1004.445312 450.316406 1004.015625 450.15625 1003.507812 450.019531 C 1002.996094 449.875 1002.441406 449.722656 1001.832031 449.550781 C 1001.234375 449.378906 1000.679688 449.136719 1000.167969 448.8125 C 999.652344 448.488281 999.222656 448.0625 998.878906 447.539062 C 998.527344 447.007812 998.351562 446.316406 998.351562 445.453125 C 998.351562 444.820312 998.488281 444.261719 998.757812 443.78125 C 999.03125 443.300781 999.398438 442.890625 999.855469 442.5625 C 1000.316406 442.230469 1000.847656 441.972656 1001.453125 441.792969 C 1002.054688 441.613281 1002.683594 441.523438 1003.347656 441.523438 L 1003.347656 439.667969 L 1005.585938 439.667969 L 1005.585938 441.796875 C 1005.945312 441.902344 1006.273438 442.019531 1006.558594 442.144531 C 1006.84375 442.277344 1007.082031 442.394531 1007.273438 442.515625 L 1007.273438 441.71875 L 1010.171875 441.71875 L 1010.171875 446.382812 L 1007.273438 446.382812 C 1007.226562 446.082031 1007.121094 445.804688 1006.960938 445.550781 C 1006.792969 445.296875 1006.597656 445.074219 1006.363281 444.894531 C 1006.132812 444.714844 1005.875 444.574219 1005.585938 444.464844 C 1005.300781 444.359375 1005.011719 444.304688 1004.726562 444.304688 C 1004.367188 444.304688 1004.066406 444.375 1003.835938 444.511719 C 1003.597656 444.648438 1003.484375 444.84375 1003.484375 445.101562 C 1003.484375 445.421875 1003.660156 445.660156 1004.015625 445.824219 C 1004.367188 445.992188 1004.808594 446.144531 1005.324219 446.289062 C 1005.84375 446.433594 1006.414062 446.589844 1007.03125 446.761719 C 1007.644531 446.933594 1008.214844 447.183594 1008.730469 447.507812 C 1009.25 447.832031 1009.6875 448.265625 1010.042969 448.804688 C 1010.394531 449.347656 1010.570312 450.058594 1010.570312 450.933594 C 1010.570312 451.578125 1010.4375 452.144531 1010.171875 452.617188 C 1009.902344 453.09375 1009.535156 453.488281 1009.074219 453.804688 C 1008.617188 454.121094 1008.085938 454.359375 1007.484375 454.515625 C 1006.878906 454.675781 1006.246094 454.769531 1005.585938 454.796875 L 1005.585938 456.609375 L 1003.347656 456.609375 L 1003.347656 454.625 " fill-opacity="1" fill-rule="nonzero"/><path fill="#bdbcbd" d="M 1020.441406 448.109375 C 1020.441406 448.105469 1020.441406 448.101562 1020.441406 448.101562 C 1020.441406 448.101562 1020.441406 448.105469 1020.441406 448.109375 M 1020.441406 448.082031 C 1020.441406 448.078125 1020.441406 448.074219 1020.441406 448.074219 C 1020.441406 448.074219 1020.441406 448.078125 1020.441406 448.082031 M 1020.441406 448.054688 C 1020.441406 448.054688 1020.441406 448.046875 1020.441406 448.046875 C 1020.441406 448.046875 1020.441406 448.054688 1020.441406 448.054688 M 1020.441406 448.027344 C 1020.441406 448.027344 1020.441406 448.023438 1020.441406 448.015625 C 1020.441406 448.023438 1020.441406 448.027344 1020.441406 448.027344 M 1020.441406 448.003906 C 1020.441406 447.996094 1020.441406 447.996094 1020.441406 447.992188 C 1020.441406 447.996094 1020.441406 447.996094 1020.441406 448.003906 M 1020.441406 447.976562 C 1020.441406 447.972656 1020.441406 447.96875 1020.441406 447.964844 C 1020.441406 447.96875 1020.441406 447.972656 1020.441406 447.976562 M 1020.441406 447.949219 C 1020.441406 447.945312 1020.441406 447.941406 1020.441406 447.941406 C 1020.441406 447.941406 1020.441406 447.945312 1020.441406 447.949219 M 1020.441406 447.921875 C 1020.441406 447.921875 1020.441406 447.914062 1020.441406 447.910156 C 1020.441406 447.914062 1020.441406 447.917969 1020.441406 447.921875 M 1020.441406 447.894531 C 1020.441406 447.890625 1020.441406 447.890625 1020.441406 447.882812 C 1020.441406 447.890625 1020.441406 447.890625 1020.441406 447.894531 M 1020.441406 447.867188 C 1020.441406 447.863281 1020.441406 447.863281 1020.4375 447.859375 C 1020.441406 447.863281 1020.441406 447.863281 1020.441406 447.867188 M 1020.4375 447.839844 C 1020.4375 447.835938 1020.4375 447.835938 1020.4375 447.832031 C 1020.4375 447.835938 1020.4375 447.835938 1020.4375 447.839844 M 1020.4375 447.8125 C 1020.4375 447.808594 1020.4375 447.804688 1020.4375 447.804688 C 1020.4375 447.808594 1020.4375 447.808594 1020.4375 447.8125 M 1020.4375 447.785156 C 1020.4375 447.78125 1020.4375 447.78125 1020.4375 447.777344 C 1020.4375 447.78125 1020.4375 447.78125 1020.4375 447.785156 M 1020.4375 447.753906 C 1020.4375 447.753906 1020.4375 447.753906 1020.4375 447.75 C 1020.4375 447.753906 1020.4375 447.753906 1020.4375 447.753906 M 1020.433594 447.589844 C 1020.433594 447.589844 1020.433594 447.589844 1020.433594 447.585938 C 1020.433594 447.589844 1020.433594 447.589844 1020.433594 447.589844 M 1020.425781 447.480469 L 1020.425781 447.480469 " fill-opacity="1" fill-rule="nonzero"/><path fill="#9f4839" d="M 1004.433594 464.140625 C 1004.433594 464.140625 1004.429688 464.140625 1004.425781 464.140625 C 1004.429688 464.140625 1004.433594 464.140625 1004.433594 464.140625 M 1004.410156 464.140625 C 1004.40625 464.140625 1004.40625 464.140625 1004.402344 464.140625 C 1004.40625 464.140625 1004.40625 464.140625 1004.410156 464.140625 M 1004.382812 464.140625 C 1004.378906 464.140625 1004.378906 464.140625 1004.375 464.140625 C 1004.378906 464.140625 1004.378906 464.140625 1004.382812 464.140625 M 1004.359375 464.140625 C 1004.355469 464.140625 1004.351562 464.140625 1004.347656 464.140625 C 1004.351562 464.140625 1004.355469 464.140625 1004.359375 464.140625 M 1004.332031 464.140625 C 1004.332031 464.140625 1004.328125 464.140625 1004.324219 464.140625 C 1004.328125 464.140625 1004.332031 464.140625 1004.332031 464.140625 M 1004.304688 464.140625 C 1004.300781 464.140625 1004.300781 464.140625 1004.300781 464.140625 C 1004.300781 464.140625 1004.300781 464.140625 1004.304688 464.140625 M 1004.28125 464.140625 C 1004.277344 464.140625 1004.273438 464.140625 1004.273438 464.140625 C 1004.273438 464.140625 1004.277344 464.140625 1004.28125 464.140625 M 1004.253906 464.140625 C 1004.253906 464.140625 1004.25 464.140625 1004.246094 464.140625 C 1004.25 464.140625 1004.253906 464.140625 1004.253906 464.140625 M 1004.226562 464.140625 C 1004.226562 464.140625 1004.226562 464.140625 1004.222656 464.140625 C 1004.222656 464.140625 1004.226562 464.140625 1004.226562 464.140625 M 1004.203125 464.140625 C 1004.199219 464.140625 1004.195312 464.140625 1004.195312 464.140625 C 1004.195312 464.140625 1004.199219 464.140625 1004.203125 464.140625 M 1004.175781 464.140625 C 1004.175781 464.140625 1004.171875 464.140625 1004.167969 464.140625 C 1004.171875 464.140625 1004.175781 464.140625 1004.175781 464.140625 M 1004.148438 464.140625 C 1004.148438 464.140625 1004.148438 464.140625 1004.144531 464.140625 C 1004.148438 464.140625 1004.148438 464.140625 1004.148438 464.140625 M 1004.125 464.140625 C 1004.121094 464.140625 1004.121094 464.140625 1004.121094 464.140625 C 1004.121094 464.140625 1004.121094 464.140625 1004.125 464.140625 M 1004.097656 464.140625 C 1004.097656 464.140625 1004.097656 464.136719 1004.09375 464.136719 C 1004.097656 464.140625 1004.097656 464.140625 1004.097656 464.140625 M 1004.074219 464.136719 C 1004.074219 464.136719 1004.074219 464.136719 1004.070312 464.136719 L 1004.074219 464.136719 " fill-opacity="1" fill-rule="nonzero"/><path fill="#b27510" d="M 1004.460938 464.140625 C 1004.453125 464.140625 1004.445312 464.140625 1004.433594 464.140625 C 1004.433594 464.140625 1004.429688 464.140625 1004.425781 464.140625 C 1004.417969 464.140625 1004.414062 464.140625 1004.410156 464.140625 C 1004.40625 464.140625 1004.40625 464.140625 1004.402344 464.140625 C 1004.398438 464.140625 1004.390625 464.140625 1004.382812 464.140625 C 1004.378906 464.140625 1004.378906 464.140625 1004.375 464.140625 C 1004.367188 464.140625 1004.363281 464.140625 1004.359375 464.140625 C 1004.355469 464.140625 1004.351562 464.140625 1004.347656 464.140625 C 1004.34375 464.140625 1004.339844 464.140625 1004.332031 464.140625 C 1004.332031 464.140625 1004.328125 464.140625 1004.324219 464.140625 C 1004.320312 464.140625 1004.3125 464.140625 1004.304688 464.140625 C 1004.300781 464.140625 1004.300781 464.140625 1004.300781 464.140625 C 1004.292969 464.140625 1004.285156 464.140625 1004.28125 464.140625 C 1004.277344 464.140625 1004.273438 464.140625 1004.273438 464.140625 C 1004.265625 464.140625 1004.261719 464.140625 1004.253906 464.140625 C 1004.253906 464.140625 1004.25 464.140625 1004.246094 464.140625 C 1004.238281 464.140625 1004.234375 464.140625 1004.226562 464.140625 C 1004.226562 464.140625 1004.222656 464.140625 1004.222656 464.140625 C 1004.214844 464.140625 1004.207031 464.140625 1004.203125 464.140625 C 1004.199219 464.140625 1004.195312 464.140625 1004.195312 464.140625 C 1004.1875 464.140625 1004.183594 464.140625 1004.175781 464.140625 C 1004.175781 464.140625 1004.171875 464.140625 1004.167969 464.140625 C 1004.164062 464.140625 1004.160156 464.140625 1004.148438 464.140625 C 1004.148438 464.140625 1004.148438 464.140625 1004.144531 464.140625 C 1004.140625 464.140625 1004.128906 464.140625 1004.125 464.140625 C 1004.121094 464.140625 1004.121094 464.140625 1004.121094 464.140625 C 1004.109375 464.140625 1004.105469 464.140625 1004.097656 464.140625 C 1004.097656 464.140625 1004.097656 464.140625 1004.09375 464.136719 C 1004.085938 464.136719 1004.082031 464.136719 1004.074219 464.136719 L 1004.070312 464.136719 C 1004.0625 464.136719 1004.054688 464.136719 1004.042969 464.136719 C 999.761719 464.023438 995.894531 462.210938 993.082031 459.351562 C 994.414062 459.167969 995.746094 458.953125 997.054688 458.679688 C 999.152344 460.164062 1001.710938 461.035156 1004.460938 461.035156 C 1011.550781 461.035156 1017.339844 455.238281 1017.339844 448.136719 C 1017.339844 445.199219 1016.351562 442.488281 1014.6875 440.316406 C 1014.933594 438.980469 1015.105469 437.636719 1015.191406 436.292969 C 1018.261719 439.089844 1020.25 443.058594 1020.425781 447.480469 C 1020.429688 447.5 1020.429688 447.515625 1020.429688 447.535156 C 1020.429688 447.542969 1020.429688 447.554688 1020.429688 447.5625 C 1020.433594 447.570312 1020.433594 447.578125 1020.433594 447.585938 C 1020.433594 447.589844 1020.433594 447.589844 1020.433594 447.589844 C 1020.433594 447.644531 1020.433594 447.699219 1020.4375 447.75 C 1020.4375 447.753906 1020.4375 447.753906 1020.4375 447.753906 C 1020.4375 447.761719 1020.4375 447.769531 1020.4375 447.777344 C 1020.4375 447.78125 1020.4375 447.78125 1020.4375 447.785156 C 1020.4375 447.792969 1020.4375 447.796875 1020.4375 447.804688 C 1020.4375 447.804688 1020.4375 447.808594 1020.4375 447.8125 C 1020.4375 447.820312 1020.4375 447.824219 1020.4375 447.832031 C 1020.4375 447.835938 1020.4375 447.835938 1020.4375 447.839844 C 1020.4375 447.847656 1020.4375 447.855469 1020.4375 447.859375 C 1020.441406 447.863281 1020.441406 447.863281 1020.441406 447.867188 C 1020.441406 447.871094 1020.441406 447.878906 1020.441406 447.882812 C 1020.441406 447.890625 1020.441406 447.890625 1020.441406 447.894531 C 1020.441406 447.902344 1020.441406 447.90625 1020.441406 447.910156 C 1020.441406 447.914062 1020.441406 447.921875 1020.441406 447.921875 C 1020.441406 447.929688 1020.441406 447.933594 1020.441406 447.941406 C 1020.441406 447.941406 1020.441406 447.945312 1020.441406 447.949219 C 1020.441406 447.953125 1020.441406 447.960938 1020.441406 447.964844 C 1020.441406 447.96875 1020.441406 447.972656 1020.441406 447.976562 C 1020.441406 447.980469 1020.441406 447.988281 1020.441406 447.992188 C 1020.441406 447.996094 1020.441406 447.996094 1020.441406 448.003906 C 1020.441406 448.007812 1020.441406 448.011719 1020.441406 448.015625 C 1020.441406 448.023438 1020.441406 448.027344 1020.441406 448.027344 C 1020.441406 448.035156 1020.441406 448.039062 1020.441406 448.046875 C 1020.441406 448.046875 1020.441406 448.054688 1020.441406 448.054688 C 1020.441406 448.0625 1020.441406 448.066406 1020.441406 448.074219 C 1020.441406 448.074219 1020.441406 448.078125 1020.441406 448.082031 C 1020.441406 448.089844 1020.441406 448.09375 1020.441406 448.101562 C 1020.441406 448.101562 1020.441406 448.105469 1020.441406 448.109375 C 1020.441406 448.117188 1020.441406 448.128906 1020.441406 448.136719 C 1020.441406 456.953125 1013.261719 464.140625 1004.460938 464.140625 " fill-opacity="1" fill-rule="nonzero"/><path fill="#ba9744" d="M 1004.460938 461.035156 C 1001.710938 461.035156 999.152344 460.164062 997.054688 458.679688 C 999.316406 458.207031 1001.519531 457.558594 1003.570312 456.609375 L 1005.585938 456.609375 L 1005.585938 455.546875 C 1006.054688 455.261719 1006.515625 454.960938 1006.96875 454.636719 C 1007.140625 454.597656 1007.3125 454.558594 1007.484375 454.515625 C 1008.085938 454.359375 1008.617188 454.121094 1009.074219 453.804688 C 1009.535156 453.488281 1009.902344 453.09375 1010.171875 452.617188 C 1010.398438 452.203125 1010.53125 451.726562 1010.5625 451.1875 C 1012.929688 448.140625 1013.941406 444.21875 1014.65625 440.488281 C 1014.667969 440.429688 1014.679688 440.371094 1014.6875 440.316406 C 1016.351562 442.488281 1017.339844 445.199219 1017.339844 448.136719 C 1017.339844 455.238281 1011.550781 461.035156 1004.460938 461.035156 " fill-opacity="1" fill-rule="nonzero"/><path fill="#b27510" d="M 1005.585938 456.609375 L 1003.570312 456.609375 C 1004.261719 456.292969 1004.929688 455.9375 1005.585938 455.546875 L 1005.585938 456.609375 M 1006.96875 454.636719 C 1008.140625 453.785156 1009.238281 452.78125 1010.234375 451.597656 C 1010.347656 451.464844 1010.457031 451.328125 1010.5625 451.1875 C 1010.53125 451.726562 1010.398438 452.203125 1010.171875 452.617188 C 1009.902344 453.09375 1009.535156 453.488281 1009.074219 453.804688 C 1008.617188 454.121094 1008.085938 454.359375 1007.484375 454.515625 C 1007.3125 454.558594 1007.140625 454.597656 1006.96875 454.636719 " fill-opacity="1" fill-rule="nonzero"/><path fill="#f1a017" d="M 984.910156 427.3125 C 993.710938 427.3125 1000.890625 420.121094 1000.890625 411.308594 C 1000.890625 402.492188 993.710938 395.300781 984.910156 395.300781 C 976.109375 395.300781 968.933594 402.492188 968.933594 411.308594 C 968.933594 420.121094 976.109375 427.3125 984.910156 427.3125 " fill-opacity="1" fill-rule="evenodd"/><path fill="#fcce5c" d="M 984.910156 424.203125 C 992.003906 424.203125 997.785156 418.40625 997.785156 411.308594 C 997.785156 404.203125 992.003906 398.410156 984.910156 398.410156 C 977.820312 398.410156 972.035156 404.203125 972.035156 411.308594 C 972.035156 418.40625 977.820312 424.203125 984.910156 424.203125 " fill-opacity="1" fill-rule="evenodd"/><path fill="#f1a017" d="M 983.796875 417.792969 C 983.152344 417.640625 982.480469 417.363281 981.789062 416.976562 L 981.789062 417.746094 L 978.921875 417.746094 L 978.921875 412.976562 L 981.789062 412.976562 C 981.949219 413.671875 982.285156 414.210938 982.796875 414.597656 C 983.300781 414.988281 983.871094 415.183594 984.5 415.183594 C 984.9375 415.183594 985.253906 415.101562 985.457031 414.9375 C 985.660156 414.769531 985.757812 414.59375 985.757812 414.402344 C 985.757812 414.085938 985.585938 413.835938 985.242188 413.660156 C 984.894531 413.484375 984.472656 413.324219 983.957031 413.1875 C 983.449219 413.046875 982.890625 412.890625 982.285156 412.722656 C 981.683594 412.550781 981.125 412.304688 980.613281 411.980469 C 980.105469 411.65625 979.675781 411.230469 979.324219 410.707031 C 978.976562 410.179688 978.804688 409.488281 978.804688 408.625 C 978.804688 407.992188 978.9375 407.429688 979.207031 406.953125 C 979.480469 406.46875 979.847656 406.058594 980.308594 405.730469 C 980.765625 405.398438 981.300781 405.144531 981.902344 404.964844 C 982.503906 404.785156 983.136719 404.691406 983.796875 404.691406 L 983.796875 402.835938 L 986.035156 402.835938 L 986.035156 404.96875 C 986.398438 405.070312 986.722656 405.1875 987.007812 405.316406 C 987.292969 405.445312 987.53125 405.566406 987.726562 405.683594 L 987.726562 404.890625 L 990.625 404.890625 L 990.625 409.550781 L 987.726562 409.550781 C 987.679688 409.25 987.578125 408.972656 987.410156 408.71875 C 987.242188 408.464844 987.046875 408.246094 986.8125 408.0625 C 986.582031 407.886719 986.324219 407.742188 986.035156 407.636719 C 985.75 407.523438 985.464844 407.476562 985.175781 407.476562 C 984.816406 407.476562 984.519531 407.542969 984.28125 407.675781 C 984.046875 407.8125 983.929688 408.011719 983.929688 408.269531 C 983.929688 408.585938 984.105469 408.828125 984.464844 408.992188 C 984.824219 409.15625 985.257812 409.316406 985.777344 409.460938 C 986.292969 409.601562 986.863281 409.757812 987.480469 409.933594 C 988.097656 410.101562 988.664062 410.355469 989.183594 410.679688 C 989.703125 411 990.140625 411.433594 990.492188 411.976562 C 990.84375 412.515625 991.019531 413.222656 991.019531 414.101562 C 991.019531 414.75 990.886719 415.3125 990.617188 415.785156 C 990.351562 416.261719 989.980469 416.652344 989.523438 416.976562 C 989.066406 417.289062 988.535156 417.523438 987.933594 417.6875 C 987.328125 417.839844 986.695312 417.9375 986.035156 417.964844 L 986.035156 419.777344 L 983.796875 419.777344 L 983.796875 417.792969 " fill-opacity="1" fill-rule="nonzero"/><path fill="#bdbcbd" d="M 984.886719 427.3125 C 984.882812 427.3125 984.875 427.3125 984.875 427.3125 C 984.875 427.3125 984.882812 427.3125 984.886719 427.3125 M 984.859375 427.3125 C 984.855469 427.3125 984.851562 427.3125 984.847656 427.3125 C 984.851562 427.3125 984.855469 427.3125 984.859375 427.3125 M 984.835938 427.3125 C 984.828125 427.3125 984.824219 427.3125 984.820312 427.3125 C 984.824219 427.3125 984.828125 427.3125 984.835938 427.3125 M 984.804688 427.3125 C 984.804688 427.3125 984.800781 427.3125 984.796875 427.3125 C 984.800781 427.3125 984.804688 427.3125 984.804688 427.3125 M 984.78125 427.3125 C 984.777344 427.3125 984.773438 427.3125 984.769531 427.3125 C 984.773438 427.3125 984.777344 427.3125 984.78125 427.3125 M 984.757812 427.3125 C 984.75 427.3125 984.75 427.3125 984.746094 427.3125 C 984.75 427.3125 984.75 427.3125 984.757812 427.3125 M 984.730469 427.308594 C 984.726562 427.308594 984.722656 427.308594 984.71875 427.308594 C 984.722656 427.308594 984.726562 427.308594 984.730469 427.308594 M 984.703125 427.308594 C 984.703125 427.308594 984.695312 427.308594 984.691406 427.308594 C 984.695312 427.308594 984.703125 427.308594 984.703125 427.308594 M 984.679688 427.308594 C 984.671875 427.308594 984.671875 427.308594 984.667969 427.308594 C 984.671875 427.308594 984.671875 427.308594 984.679688 427.308594 M 984.652344 427.308594 C 984.648438 427.308594 984.644531 427.308594 984.644531 427.308594 C 984.644531 427.308594 984.648438 427.308594 984.652344 427.308594 M 984.625 427.308594 C 984.625 427.308594 984.621094 427.308594 984.617188 427.308594 C 984.621094 427.308594 984.625 427.308594 984.625 427.308594 M 984.601562 427.308594 C 984.597656 427.308594 984.59375 427.308594 984.589844 427.308594 C 984.597656 427.308594 984.597656 427.308594 984.601562 427.308594 M 984.574219 427.308594 C 984.570312 427.308594 984.570312 427.308594 984.566406 427.308594 C 984.570312 427.308594 984.570312 427.308594 984.574219 427.308594 M 984.550781 427.304688 C 984.546875 427.304688 984.542969 427.304688 984.542969 427.304688 C 984.542969 427.304688 984.546875 427.304688 984.550781 427.304688 M 984.519531 427.304688 C 984.519531 427.304688 984.519531 427.304688 984.515625 427.304688 C 984.519531 427.304688 984.519531 427.304688 984.519531 427.304688 M 984.496094 427.304688 C 984.492188 427.304688 984.492188 427.304688 984.492188 427.304688 C 984.492188 427.304688 984.492188 427.304688 984.496094 427.304688 M 984.472656 427.304688 C 984.46875 427.304688 984.464844 427.304688 984.464844 427.304688 C 984.464844 427.304688 984.46875 427.304688 984.472656 427.304688 M 984.445312 427.304688 C 984.445312 427.304688 984.441406 427.304688 984.4375 427.304688 C 984.441406 427.304688 984.445312 427.304688 984.445312 427.304688 M 984.417969 427.304688 C 984.417969 427.304688 984.414062 427.304688 984.414062 427.304688 C 984.414062 427.304688 984.417969 427.304688 984.417969 427.304688 M 984.394531 427.304688 C 984.390625 427.304688 984.390625 427.304688 984.386719 427.304688 C 984.390625 427.304688 984.390625 427.304688 984.394531 427.304688 M 984.367188 427.300781 C 984.367188 427.300781 984.363281 427.300781 984.363281 427.300781 C 984.363281 427.300781 984.367188 427.300781 984.367188 427.300781 M 984.339844 427.300781 L 984.339844 427.300781 M 984.316406 427.300781 C 984.3125 427.300781 984.3125 427.300781 984.3125 427.300781 C 984.3125 427.300781 984.3125 427.300781 984.316406 427.300781 M 984.289062 427.296875 C 984.289062 427.296875 984.289062 427.296875 984.285156 427.296875 C 984.285156 427.296875 984.289062 427.296875 984.289062 427.296875 M 984.261719 427.296875 L 984.261719 427.296875 M 984.238281 427.296875 L 984.234375 427.296875 C 984.238281 427.296875 984.234375 427.296875 984.238281 427.296875 M 1000.890625 411.28125 C 1000.890625 411.28125 1000.890625 411.273438 1000.890625 411.269531 C 1000.890625 411.273438 1000.890625 411.28125 1000.890625 411.28125 M 1000.890625 411.253906 C 1000.890625 411.25 1000.890625 411.246094 1000.890625 411.242188 C 1000.890625 411.246094 1000.890625 411.25 1000.890625 411.253906 M 1000.890625 411.226562 C 1000.890625 411.222656 1000.890625 411.222656 1000.890625 411.214844 C 1000.890625 411.222656 1000.890625 411.222656 1000.890625 411.226562 M 1000.890625 411.203125 C 1000.890625 411.195312 1000.890625 411.191406 1000.890625 411.1875 C 1000.890625 411.191406 1000.890625 411.195312 1000.890625 411.203125 M 1000.890625 411.175781 C 1000.890625 411.171875 1000.890625 411.164062 1000.890625 411.164062 C 1000.890625 411.164062 1000.890625 411.171875 1000.890625 411.175781 M 1000.890625 411.148438 C 1000.890625 411.144531 1000.890625 411.140625 1000.890625 411.136719 C 1000.890625 411.140625 1000.890625 411.144531 1000.890625 411.148438 M 1000.890625 411.121094 C 1000.890625 411.117188 1000.890625 411.113281 1000.890625 411.109375 C 1000.890625 411.113281 1000.890625 411.117188 1000.890625 411.121094 M 1000.890625 411.09375 C 1000.890625 411.089844 1000.890625 411.085938 1000.890625 411.082031 C 1000.890625 411.085938 1000.890625 411.089844 1000.890625 411.09375 M 1000.890625 411.066406 C 1000.890625 411.0625 1000.890625 411.058594 1000.890625 411.058594 C 1000.890625 411.058594 1000.890625 411.0625 1000.890625 411.066406 M 1000.890625 411.039062 C 1000.890625 411.039062 1000.890625 411.03125 1000.890625 411.03125 C 1000.890625 411.03125 1000.890625 411.035156 1000.890625 411.039062 M 1000.890625 411.011719 C 1000.890625 411.011719 1000.890625 411.007812 1000.890625 411.003906 C 1000.890625 411.007812 1000.890625 411.011719 1000.890625 411.011719 M 1000.890625 410.984375 C 1000.890625 410.984375 1000.890625 410.980469 1000.890625 410.976562 C 1000.890625 410.980469 1000.890625 410.984375 1000.890625 410.984375 M 997.386719 401.324219 C 996.851562 400.65625 996.269531 400.035156 995.640625 399.460938 C 996.269531 400.03125 996.851562 400.65625 997.386719 401.324219 " fill-opacity="1" fill-rule="nonzero"/><path fill="#b27510" d="M 984.910156 427.3125 C 984.902344 427.3125 984.894531 427.3125 984.886719 427.3125 C 984.882812 427.3125 984.875 427.3125 984.875 427.3125 C 984.867188 427.3125 984.863281 427.3125 984.859375 427.3125 C 984.855469 427.3125 984.851562 427.3125 984.847656 427.3125 C 984.84375 427.3125 984.835938 427.3125 984.835938 427.3125 C 984.828125 427.3125 984.824219 427.3125 984.820312 427.3125 C 984.816406 427.3125 984.8125 427.3125 984.804688 427.3125 C 984.804688 427.3125 984.800781 427.3125 984.796875 427.3125 C 984.789062 427.3125 984.789062 427.3125 984.78125 427.3125 C 984.777344 427.3125 984.773438 427.3125 984.769531 427.3125 C 984.765625 427.3125 984.757812 427.3125 984.757812 427.3125 C 984.75 427.3125 984.75 427.3125 984.746094 427.3125 C 984.738281 427.308594 984.734375 427.308594 984.730469 427.308594 C 984.726562 427.308594 984.722656 427.308594 984.71875 427.308594 C 984.714844 427.308594 984.710938 427.308594 984.703125 427.308594 C 984.703125 427.308594 984.695312 427.308594 984.691406 427.308594 C 984.6875 427.308594 984.683594 427.308594 984.679688 427.308594 C 984.671875 427.308594 984.671875 427.308594 984.667969 427.308594 C 984.664062 427.308594 984.65625 427.308594 984.652344 427.308594 C 984.648438 427.308594 984.644531 427.308594 984.644531 427.308594 C 984.636719 427.308594 984.632812 427.308594 984.625 427.308594 C 984.625 427.308594 984.621094 427.308594 984.617188 427.308594 C 984.609375 427.308594 984.605469 427.308594 984.601562 427.308594 C 984.597656 427.308594 984.597656 427.308594 984.589844 427.308594 C 984.585938 427.308594 984.578125 427.308594 984.574219 427.308594 C 984.570312 427.308594 984.570312 427.308594 984.566406 427.308594 C 984.558594 427.304688 984.554688 427.304688 984.550781 427.304688 C 984.546875 427.304688 984.542969 427.304688 984.542969 427.304688 C 984.535156 427.304688 984.53125 427.304688 984.519531 427.304688 C 984.519531 427.304688 984.519531 427.304688 984.515625 427.304688 C 984.511719 427.304688 984.503906 427.304688 984.496094 427.304688 C 984.492188 427.304688 984.492188 427.304688 984.492188 427.304688 C 984.484375 427.304688 984.476562 427.304688 984.472656 427.304688 C 984.46875 427.304688 984.464844 427.304688 984.464844 427.304688 C 984.457031 427.304688 984.453125 427.304688 984.445312 427.304688 C 984.445312 427.304688 984.441406 427.304688 984.4375 427.304688 C 984.433594 427.304688 984.425781 427.304688 984.417969 427.304688 C 984.417969 427.304688 984.414062 427.304688 984.414062 427.304688 C 984.40625 427.304688 984.398438 427.304688 984.394531 427.304688 C 984.390625 427.304688 984.390625 427.304688 984.386719 427.304688 C 984.378906 427.300781 984.375 427.300781 984.367188 427.300781 C 984.367188 427.300781 984.363281 427.300781 984.363281 427.300781 C 984.355469 427.300781 984.347656 427.300781 984.339844 427.300781 C 984.332031 427.300781 984.320312 427.300781 984.316406 427.300781 C 984.3125 427.300781 984.3125 427.300781 984.3125 427.300781 C 984.304688 427.300781 984.296875 427.296875 984.289062 427.296875 C 984.289062 427.296875 984.285156 427.296875 984.285156 427.296875 C 984.277344 427.296875 984.273438 427.296875 984.261719 427.296875 C 984.253906 427.296875 984.246094 427.296875 984.238281 427.296875 C 984.234375 427.296875 984.238281 427.296875 984.234375 427.296875 C 980.058594 427.121094 976.289062 425.324219 973.53125 422.523438 C 974.867188 422.339844 976.199219 422.125 977.507812 421.847656 C 979.605469 423.332031 982.15625 424.203125 984.910156 424.203125 C 992.003906 424.203125 997.785156 418.40625 997.785156 411.308594 C 997.785156 408.371094 996.800781 405.65625 995.136719 403.484375 C 995.386719 402.148438 995.554688 400.808594 995.640625 399.460938 C 996.269531 400.035156 996.851562 400.65625 997.386719 401.324219 C 999.507812 403.976562 1000.808594 407.316406 1000.890625 410.953125 C 1000.890625 410.960938 1000.890625 410.96875 1000.890625 410.976562 C 1000.890625 410.980469 1000.890625 410.984375 1000.890625 410.984375 C 1000.890625 410.992188 1000.890625 410.996094 1000.890625 411.003906 C 1000.890625 411.007812 1000.890625 411.011719 1000.890625 411.011719 C 1000.890625 411.019531 1000.890625 411.023438 1000.890625 411.03125 C 1000.890625 411.03125 1000.890625 411.039062 1000.890625 411.039062 C 1000.890625 411.046875 1000.890625 411.050781 1000.890625 411.058594 C 1000.890625 411.058594 1000.890625 411.0625 1000.890625 411.066406 C 1000.890625 411.070312 1000.890625 411.078125 1000.890625 411.082031 C 1000.890625 411.085938 1000.890625 411.089844 1000.890625 411.09375 C 1000.890625 411.097656 1000.890625 411.105469 1000.890625 411.109375 C 1000.890625 411.113281 1000.890625 411.117188 1000.890625 411.121094 C 1000.890625 411.125 1000.890625 411.128906 1000.890625 411.136719 C 1000.890625 411.140625 1000.890625 411.144531 1000.890625 411.148438 C 1000.890625 411.152344 1000.890625 411.15625 1000.890625 411.164062 C 1000.890625 411.164062 1000.890625 411.171875 1000.890625 411.175781 C 1000.890625 411.179688 1000.890625 411.183594 1000.890625 411.1875 C 1000.890625 411.191406 1000.890625 411.195312 1000.890625 411.203125 C 1000.890625 411.207031 1000.890625 411.210938 1000.890625 411.214844 C 1000.890625 411.222656 1000.890625 411.222656 1000.890625 411.226562 C 1000.890625 411.230469 1000.890625 411.238281 1000.890625 411.242188 C 1000.890625 411.246094 1000.890625 411.25 1000.890625 411.253906 C 1000.890625 411.261719 1000.890625 411.265625 1000.890625 411.269531 C 1000.890625 411.273438 1000.890625 411.28125 1000.890625 411.28125 C 1000.890625 411.289062 1000.890625 411.296875 1000.890625 411.308594 C 1000.890625 420.121094 993.710938 427.3125 984.910156 427.3125 " fill-opacity="1" fill-rule="nonzero"/><path fill="#ba9744" d="M 984.910156 424.203125 C 982.15625 424.203125 979.605469 423.332031 977.507812 421.847656 C 979.765625 421.375 981.96875 420.726562 984.019531 419.777344 L 986.035156 419.777344 L 986.035156 418.714844 C 986.507812 418.433594 986.96875 418.128906 987.417969 417.804688 C 987.589844 417.769531 987.761719 417.730469 987.933594 417.6875 C 988.535156 417.523438 989.066406 417.289062 989.523438 416.976562 C 989.980469 416.652344 990.351562 416.261719 990.617188 415.785156 C 990.851562 415.375 990.980469 414.898438 991.011719 414.355469 C 993.382812 411.308594 994.390625 407.386719 995.105469 403.65625 C 995.117188 403.601562 995.125 403.542969 995.136719 403.484375 C 996.800781 405.65625 997.785156 408.371094 997.785156 411.308594 C 997.785156 418.40625 992.003906 424.203125 984.910156 424.203125 " fill-opacity="1" fill-rule="nonzero"/><path fill="#b27510" d="M 986.035156 419.777344 L 984.019531 419.777344 C 984.710938 419.460938 985.382812 419.105469 986.035156 418.714844 L 986.035156 419.777344 M 987.417969 417.804688 C 988.589844 416.953125 989.683594 415.953125 990.683594 414.765625 C 990.796875 414.632812 990.90625 414.496094 991.011719 414.355469 C 990.980469 414.898438 990.851562 415.375 990.617188 415.785156 C 990.351562 416.261719 989.980469 416.652344 989.523438 416.976562 C 989.066406 417.289062 988.535156 417.523438 987.933594 417.6875 C 987.761719 417.730469 987.589844 417.769531 987.417969 417.804688 " fill-opacity="1" fill-rule="nonzero"/><g clip-path="url(#id4)"><path fill="#f1a017" d="M 1021.683594 404.621094 C 1030.484375 404.621094 1037.667969 397.429688 1037.667969 388.617188 C 1037.667969 379.804688 1030.484375 372.617188 1021.683594 372.617188 C 1012.882812 372.617188 1005.703125 379.804688 1005.703125 388.617188 C 1005.703125 397.429688 1012.882812 404.621094 1021.683594 404.621094 " fill-opacity="1" fill-rule="evenodd"/></g><path fill="#fcce5c" d="M 1021.683594 401.515625 C 1028.78125 401.515625 1034.5625 395.722656 1034.5625 388.617188 C 1034.5625 381.515625 1028.78125 375.722656 1021.683594 375.722656 C 1014.59375 375.722656 1008.808594 381.515625 1008.808594 388.617188 C 1008.808594 395.722656 1014.59375 401.515625 1021.683594 401.515625 " fill-opacity="1" fill-rule="evenodd"/><path fill="#f1a017" d="M 1020.570312 395.105469 C 1019.925781 394.945312 1019.253906 394.671875 1018.566406 394.285156 L 1018.566406 395.058594 L 1015.699219 395.058594 L 1015.699219 390.289062 L 1018.566406 390.289062 C 1018.726562 390.980469 1019.058594 391.523438 1019.566406 391.910156 C 1020.074219 392.300781 1020.644531 392.492188 1021.273438 392.492188 C 1021.710938 392.492188 1022.027344 392.417969 1022.234375 392.246094 C 1022.433594 392.082031 1022.535156 391.902344 1022.535156 391.710938 C 1022.535156 391.390625 1022.359375 391.148438 1022.015625 390.972656 C 1021.671875 390.792969 1021.242188 390.636719 1020.726562 390.496094 C 1020.222656 390.355469 1019.664062 390.199219 1019.058594 390.03125 C 1018.460938 389.863281 1017.902344 389.617188 1017.394531 389.292969 C 1016.878906 388.96875 1016.449219 388.542969 1016.097656 388.015625 C 1015.75 387.492188 1015.574219 386.796875 1015.574219 385.933594 C 1015.574219 385.300781 1015.710938 384.746094 1015.984375 384.257812 C 1016.253906 383.78125 1016.621094 383.371094 1017.082031 383.039062 C 1017.542969 382.710938 1018.074219 382.453125 1018.671875 382.273438 C 1019.277344 382.089844 1019.910156 382.003906 1020.570312 382.003906 L 1020.570312 380.144531 L 1022.808594 380.144531 L 1022.808594 382.28125 C 1023.167969 382.382812 1023.492188 382.5 1023.78125 382.628906 C 1024.066406 382.753906 1024.308594 382.878906 1024.5 382.992188 L 1024.5 382.203125 L 1027.398438 382.203125 L 1027.398438 386.863281 L 1024.5 386.863281 C 1024.453125 386.5625 1024.347656 386.28125 1024.183594 386.027344 C 1024.015625 385.773438 1023.816406 385.558594 1023.585938 385.378906 C 1023.355469 385.195312 1023.097656 385.050781 1022.808594 384.949219 C 1022.527344 384.839844 1022.234375 384.785156 1021.949219 384.785156 C 1021.589844 384.785156 1021.292969 384.855469 1021.058594 384.988281 C 1020.820312 385.128906 1020.707031 385.320312 1020.707031 385.582031 C 1020.707031 385.898438 1020.882812 386.140625 1021.242188 386.304688 C 1021.59375 386.46875 1022.035156 386.625 1022.546875 386.769531 C 1023.070312 386.914062 1023.636719 387.070312 1024.253906 387.246094 C 1024.875 387.417969 1025.441406 387.664062 1025.957031 387.992188 C 1026.476562 388.3125 1026.910156 388.746094 1027.265625 389.285156 C 1027.617188 389.832031 1027.796875 390.535156 1027.796875 391.414062 C 1027.796875 392.0625 1027.660156 392.621094 1027.390625 393.097656 C 1027.121094 393.570312 1026.757812 393.96875 1026.296875 394.285156 C 1025.839844 394.601562 1025.3125 394.839844 1024.707031 394.996094 C 1024.101562 395.15625 1023.472656 395.253906 1022.808594 395.277344 L 1022.808594 397.089844 L 1020.570312 397.089844 L 1020.570312 395.105469 " fill-opacity="1" fill-rule="nonzero"/><path fill="#bdbcbd" d="M 1021.660156 404.621094 C 1021.652344 404.621094 1021.652344 404.621094 1021.648438 404.621094 C 1021.652344 404.621094 1021.65625 404.621094 1021.660156 404.621094 M 1021.632812 404.621094 C 1021.628906 404.621094 1021.625 404.621094 1021.621094 404.621094 C 1021.625 404.621094 1021.628906 404.621094 1021.632812 404.621094 M 1021.605469 404.621094 C 1021.605469 404.621094 1021.597656 404.621094 1021.59375 404.621094 C 1021.597656 404.621094 1021.605469 404.621094 1021.605469 404.621094 M 1021.582031 404.621094 C 1021.578125 404.621094 1021.578125 404.621094 1021.574219 404.621094 C 1021.578125 404.621094 1021.578125 404.621094 1021.582031 404.621094 M 1021.554688 404.621094 C 1021.550781 404.621094 1021.546875 404.621094 1021.546875 404.621094 C 1021.546875 404.621094 1021.550781 404.621094 1021.554688 404.621094 M 1021.527344 404.621094 C 1021.527344 404.621094 1021.523438 404.621094 1021.519531 404.621094 C 1021.523438 404.621094 1021.527344 404.621094 1021.527344 404.621094 M 1021.503906 404.621094 C 1021.5 404.621094 1021.5 404.621094 1021.496094 404.621094 C 1021.5 404.621094 1021.5 404.621094 1021.503906 404.621094 M 1021.476562 404.621094 C 1021.476562 404.621094 1021.472656 404.621094 1021.472656 404.621094 C 1021.472656 404.621094 1021.476562 404.621094 1021.476562 404.621094 M 1021.453125 404.621094 C 1021.449219 404.621094 1021.449219 404.621094 1021.445312 404.621094 C 1021.449219 404.621094 1021.449219 404.621094 1021.453125 404.621094 M 1021.425781 404.621094 C 1021.425781 404.621094 1021.425781 404.621094 1021.421875 404.621094 C 1021.425781 404.621094 1021.425781 404.621094 1021.425781 404.621094 M 1021.398438 404.621094 C 1021.398438 404.621094 1021.394531 404.621094 1021.394531 404.621094 C 1021.394531 404.621094 1021.398438 404.621094 1021.398438 404.621094 M 1021.375 404.617188 C 1021.371094 404.617188 1021.371094 404.617188 1021.371094 404.617188 C 1021.371094 404.617188 1021.371094 404.617188 1021.375 404.617188 M 1021.347656 404.617188 C 1021.347656 404.617188 1021.347656 404.617188 1021.34375 404.617188 C 1021.347656 404.617188 1021.347656 404.617188 1021.347656 404.617188 M 1037.667969 388.59375 C 1037.667969 388.585938 1037.667969 388.585938 1037.667969 388.582031 C 1037.667969 388.585938 1037.667969 388.585938 1037.667969 388.59375 M 1037.667969 388.566406 C 1037.667969 388.5625 1037.667969 388.558594 1037.667969 388.554688 C 1037.667969 388.558594 1037.667969 388.5625 1037.667969 388.566406 M 1037.667969 388.539062 C 1037.667969 388.535156 1037.667969 388.53125 1037.667969 388.527344 C 1037.667969 388.53125 1037.667969 388.535156 1037.667969 388.539062 M 1037.667969 388.507812 C 1037.667969 388.507812 1037.667969 388.503906 1037.667969 388.5 C 1037.667969 388.503906 1037.667969 388.507812 1037.667969 388.507812 M 1037.667969 388.484375 C 1037.667969 388.480469 1037.667969 388.480469 1037.667969 388.476562 C 1037.667969 388.480469 1037.667969 388.480469 1037.667969 388.484375 M 1037.667969 388.457031 C 1037.667969 388.453125 1037.667969 388.453125 1037.667969 388.449219 C 1037.667969 388.453125 1037.667969 388.453125 1037.667969 388.457031 M 1037.667969 388.429688 C 1037.667969 388.425781 1037.667969 388.421875 1037.667969 388.421875 C 1037.667969 388.421875 1037.667969 388.425781 1037.667969 388.429688 M 1037.667969 388.402344 C 1037.667969 388.398438 1037.667969 388.398438 1037.667969 388.394531 C 1037.667969 388.398438 1037.667969 388.398438 1037.667969 388.402344 M 1037.667969 388.375 C 1037.667969 388.375 1037.667969 388.371094 1037.667969 388.367188 C 1037.667969 388.371094 1037.667969 388.371094 1037.667969 388.375 M 1037.664062 388.347656 C 1037.664062 388.34375 1037.664062 388.34375 1037.664062 388.34375 C 1037.664062 388.34375 1037.664062 388.34375 1037.664062 388.347656 M 1032.675781 377.019531 C 1032.589844 376.9375 1032.503906 376.851562 1032.410156 376.773438 C 1032.503906 376.851562 1032.589844 376.9375 1032.675781 377.019531 " fill-opacity="1" fill-rule="nonzero"/><path fill="#b27510" d="M 1021.683594 404.621094 C 1021.675781 404.621094 1021.667969 404.621094 1021.660156 404.621094 C 1021.65625 404.621094 1021.652344 404.621094 1021.648438 404.621094 C 1021.644531 404.621094 1021.636719 404.621094 1021.632812 404.621094 C 1021.628906 404.621094 1021.625 404.621094 1021.621094 404.621094 C 1021.613281 404.621094 1021.613281 404.621094 1021.605469 404.621094 C 1021.605469 404.621094 1021.597656 404.621094 1021.59375 404.621094 C 1021.589844 404.621094 1021.585938 404.621094 1021.582031 404.621094 C 1021.578125 404.621094 1021.578125 404.621094 1021.574219 404.621094 C 1021.566406 404.621094 1021.5625 404.621094 1021.554688 404.621094 C 1021.550781 404.621094 1021.546875 404.621094 1021.546875 404.621094 C 1021.539062 404.621094 1021.535156 404.621094 1021.527344 404.621094 C 1021.527344 404.621094 1021.523438 404.621094 1021.519531 404.621094 C 1021.515625 404.621094 1021.511719 404.621094 1021.503906 404.621094 C 1021.5 404.621094 1021.5 404.621094 1021.496094 404.621094 C 1021.492188 404.621094 1021.480469 404.621094 1021.476562 404.621094 C 1021.476562 404.621094 1021.472656 404.621094 1021.472656 404.621094 C 1021.464844 404.621094 1021.457031 404.621094 1021.453125 404.621094 C 1021.449219 404.621094 1021.449219 404.621094 1021.445312 404.621094 C 1021.4375 404.621094 1021.433594 404.621094 1021.425781 404.621094 C 1021.425781 404.621094 1021.425781 404.621094 1021.421875 404.621094 C 1021.414062 404.621094 1021.40625 404.621094 1021.398438 404.621094 C 1021.398438 404.621094 1021.394531 404.621094 1021.394531 404.621094 C 1021.386719 404.621094 1021.382812 404.617188 1021.375 404.617188 C 1021.371094 404.617188 1021.371094 404.617188 1021.371094 404.617188 C 1021.363281 404.617188 1021.355469 404.617188 1021.347656 404.617188 C 1021.347656 404.617188 1021.347656 404.617188 1021.34375 404.617188 C 1021.339844 404.617188 1021.328125 404.617188 1021.320312 404.617188 C 1017.019531 404.519531 1013.128906 402.707031 1010.304688 399.832031 C 1011.636719 399.648438 1012.96875 399.433594 1014.277344 399.160156 C 1016.375 400.644531 1018.933594 401.515625 1021.683594 401.515625 C 1028.78125 401.515625 1034.5625 395.722656 1034.5625 388.617188 C 1034.5625 385.683594 1033.574219 382.96875 1031.914062 380.796875 C 1032.164062 379.460938 1032.324219 378.121094 1032.410156 376.773438 C 1032.503906 376.851562 1032.589844 376.9375 1032.675781 377.019531 C 1035.683594 379.882812 1037.589844 383.898438 1037.664062 388.34375 C 1037.664062 388.34375 1037.664062 388.34375 1037.664062 388.347656 C 1037.664062 388.355469 1037.664062 388.363281 1037.667969 388.367188 C 1037.667969 388.371094 1037.667969 388.375 1037.667969 388.375 C 1037.667969 388.378906 1037.667969 388.386719 1037.667969 388.394531 C 1037.667969 388.398438 1037.667969 388.398438 1037.667969 388.402344 C 1037.667969 388.40625 1037.667969 388.414062 1037.667969 388.421875 C 1037.667969 388.421875 1037.667969 388.425781 1037.667969 388.429688 C 1037.667969 388.433594 1037.667969 388.441406 1037.667969 388.449219 C 1037.667969 388.453125 1037.667969 388.453125 1037.667969 388.457031 C 1037.667969 388.460938 1037.667969 388.46875 1037.667969 388.476562 C 1037.667969 388.480469 1037.667969 388.480469 1037.667969 388.484375 C 1037.667969 388.488281 1037.667969 388.496094 1037.667969 388.5 C 1037.667969 388.503906 1037.667969 388.507812 1037.667969 388.507812 C 1037.667969 388.515625 1037.667969 388.519531 1037.667969 388.527344 C 1037.667969 388.53125 1037.667969 388.535156 1037.667969 388.539062 C 1037.667969 388.542969 1037.667969 388.546875 1037.667969 388.554688 C 1037.667969 388.558594 1037.667969 388.5625 1037.667969 388.566406 C 1037.667969 388.570312 1037.667969 388.574219 1037.667969 388.582031 C 1037.667969 388.585938 1037.667969 388.585938 1037.667969 388.59375 C 1037.667969 388.601562 1037.667969 388.609375 1037.667969 388.617188 C 1037.667969 397.429688 1030.484375 404.621094 1021.683594 404.621094 " fill-opacity="1" fill-rule="nonzero"/><path fill="#ba9744" d="M 1021.683594 401.515625 C 1018.933594 401.515625 1016.375 400.644531 1014.277344 399.160156 C 1016.539062 398.683594 1018.738281 398.039062 1020.796875 397.089844 L 1022.808594 397.089844 L 1022.808594 396.027344 C 1023.28125 395.742188 1023.738281 395.441406 1024.1875 395.117188 C 1024.363281 395.082031 1024.539062 395.039062 1024.707031 394.996094 C 1025.3125 394.839844 1025.839844 394.601562 1026.296875 394.285156 C 1026.757812 393.96875 1027.121094 393.570312 1027.390625 393.097656 C 1027.625 392.6875 1027.757812 392.207031 1027.789062 391.667969 C 1030.15625 388.617188 1031.164062 384.695312 1031.882812 380.96875 C 1031.890625 380.914062 1031.902344 380.855469 1031.914062 380.796875 C 1033.574219 382.96875 1034.5625 385.683594 1034.5625 388.617188 C 1034.5625 395.722656 1028.78125 401.515625 1021.683594 401.515625 " fill-opacity="1" fill-rule="nonzero"/><path fill="#b27510" d="M 1022.808594 397.089844 L 1020.796875 397.089844 C 1021.480469 396.769531 1022.15625 396.417969 1022.808594 396.027344 L 1022.808594 397.089844 M 1024.1875 395.117188 C 1025.363281 394.265625 1026.460938 393.261719 1027.457031 392.074219 C 1027.570312 391.941406 1027.679688 391.804688 1027.789062 391.667969 C 1027.757812 392.207031 1027.625 392.6875 1027.390625 393.097656 C 1027.121094 393.570312 1026.757812 393.96875 1026.296875 394.285156 C 1025.839844 394.601562 1025.3125 394.839844 1024.707031 394.996094 C 1024.539062 395.039062 1024.363281 395.082031 1024.1875 395.117188 " fill-opacity="1" fill-rule="nonzero"/></svg>